<svg xmlns="http://www.w3.org/2000/svg" width="256" height="256"><path fill="#1976D2" fill-opacity=".016" fill-rule="evenodd" d="M0 128.004v128.004l128.25-.254 128.25-.254.254-127.75L257.008 0H0v128.004m.485.496c0 70.4.119 99.053.265 63.672.146-35.38.146-92.98 0-128C.604 29.153.485 58.1.485 128.5"/><path fill="#1976D2" fill-opacity=".326" fill-rule="evenodd" d="M8.729 30.77C.223 39.315 0 39.661 0 44.27V49h26v158H0v27h80v-27H53v-61l16.75.019 16.75.018 18.456 44.003 18.455 44.004 17.833-.272 17.832-.272 34.945-83 34.945-83 .017 83.278.017 83.278 13.698-.278 13.699-.278-.199-97.5c-.109-53.625-.199-101.212-.198-105.75V22h-35.676l-35.031 83.25-35.031 83.25-8.998.286-8.997.286-5.802-13.786a4367.494 4367.494 0 0 0-9.602-22.638c-3.788-8.82-3.794-8.853-1.587-9.43 6.976-1.825 18.298-8.85 25.128-15.591 19.891-19.635 24.104-50.055 10.335-74.627-4.182-7.464-16.785-19.731-24.425-23.775C113.422 22.401 109.799 22 61.069 22H17.458l-8.729 8.77M.3 44c0 3.025.187 4.263.416 2.75.229-1.513.229-3.987 0-5.5S.3 40.975.3 44M53 84.014v35.133l26.275-.323 26.275-.324 6.618-3.26c7.701-3.794 12.992-9.218 16.697-17.12 2.235-4.767 2.635-6.985 2.635-14.62 0-7.804-.367-9.748-2.762-14.625-3.258-6.633-10.907-14.14-17.521-17.196-4.411-2.037-6.455-2.199-31.467-2.489L53 48.881v35.133M.395 220.5c.001 7.7.158 10.718.348 6.706.191-4.011.189-10.311-.002-14-.192-3.688-.348-.406-.346 7.294"/><path fill="#1976D2" fill-opacity=".237" fill-rule="evenodd" d="M8.75 30.716C.539 38.996 0 39.798 0 43.741v4.201l13.25.279 13.25.279.256 79.25.256 79.25H0v27h79v-27H53v-62h33.509L105 189l18.491 44h35.232l34.889-82.986c19.188-45.642 35.226-82.992 35.638-83 .412-.008.75 37.336.75 82.986v83h25V21.953l-17.159.273-17.159.274-35.159 83.5-35.159 83.5h-18.471l-9.446-22.363c-5.196-12.3-9.447-22.703-9.447-23.116 0-.414 2.667-1.725 5.926-2.914 18.118-6.606 33.959-24.989 38.122-44.241 1.951-9.021.788-25.912-2.344-34.063-7.019-18.26-20.676-31.358-39.126-37.524l-8.078-2.7-45-.344-45-.344-8.75 8.825M53 83.472v35.62l26.75-.296c26.554-.294 26.791-.315 32.398-2.944 7.463-3.499 13.353-9.561 17.129-17.631 8.109-17.328.61-37.732-17.067-46.44l-6.66-3.281-26.275-.324L53 47.853v35.619"/><path fill="#1976D2" fill-opacity=".272" fill-rule="evenodd" d="M9.23 31.269c-8.335 8.37-9.23 9.63-9.23 13V48h27v160H0v25h79v-24.942l-13.25-.279-13.25-.279.038-92.75.038-92.75H18.46l-9.23 9.269"/></svg>